<svg width="108" height="100" viewBox="0 0 108 100" fill="none" xmlns="http://www.w3.org/2000/svg">
<path fill-rule="evenodd" clip-rule="evenodd" d="M20.0668 0.020194C19.9785 0.107987 20.144 1.06011 20.4757 2.3739C20.5976 2.85674 20.7257 3.3781 20.7604 3.53249C20.8424 3.89778 21.4369 5.70391 21.573 6.00128C21.6309 6.12789 21.7557 6.41611 21.8504 6.64174C22.2304 7.5477 22.729 8.56464 22.9976 8.98154C23.0998 9.14024 23.3536 9.53862 23.5616 9.86682C24.452 11.2718 25.5211 12.4255 26.7413 13.298C27.3681 13.7462 27.6091 13.9563 27.5694 14.0201C27.4761 14.1704 26.7781 14.4115 26.1114 14.5237C24.3893 14.8137 22.3778 14.4984 20.385 13.6262C20.0628 13.4852 19.7211 13.3445 19.6257 13.3135C19.4011 13.2405 18.2856 12.6341 17.6977 12.2653C17.4456 12.1072 17.1276 11.9189 16.991 11.8468C16.8545 11.7748 16.6006 11.6146 16.427 11.4907C16.2534 11.3669 15.8672 11.0962 15.5689 10.8893C14.8233 10.3722 13.7867 9.59515 13.4212 9.27951C13.2542 9.13519 13.103 9.01709 13.0853 9.017C13.0498 9.01687 12.2452 8.35974 12.1413 8.24599C12.0385 8.13345 11.4921 7.67 11.2301 7.47304C11.0989 7.37436 10.8939 7.20175 10.7746 7.08952C10.3108 6.65314 9.8239 6.25365 9.7941 6.285C9.75574 6.32533 9.93255 7.35709 10.0588 7.8293C10.2624 8.5912 10.7618 9.93025 11.1241 10.686C11.5427 11.559 12.3168 12.8713 12.585 13.1625C12.6397 13.2219 12.86 13.4812 13.0745 13.7387C13.7186 14.5117 13.748 14.5435 14.399 15.1706C14.7442 15.5031 15.0423 15.7996 15.0615 15.8295C15.0806 15.8593 15.2292 15.9857 15.3916 16.1102C15.5541 16.2347 15.9067 16.5084 16.1753 16.7185C16.6768 17.1108 17.0717 17.3792 17.4669 17.5965C17.5907 17.6646 17.8319 17.8363 18.0029 17.978L18.3138 18.2358L18.126 18.29C17.7699 18.3926 17.2354 18.4347 15.9594 18.4607C14.1771 18.4969 12.6805 18.366 11.1434 18.0393C9.21687 17.6298 7.61139 17.1211 6.05676 16.4275C5.7051 16.2706 5.39445 16.1422 5.36642 16.1422C5.30208 16.1422 3.5476 15.2022 3.28823 15.0287C3.18193 14.9577 2.97779 14.8367 2.83461 14.7601C2.48248 14.5714 2.13095 14.3352 1.36008 13.7694C1.00248 13.5068 0.696942 13.2921 0.681062 13.2921C0.665225 13.2921 0.550725 13.2241 0.426593 13.1409C0.302461 13.0578 0.151948 12.9898 0.0921162 12.9898C-0.0033803 12.9898 -0.0132285 13.0035 0.0116327 13.1021C0.0272089 13.1639 0.146482 13.3903 0.276645 13.6052C0.406852 13.8201 0.513369 14.008 0.513369 14.0225C0.513369 14.0521 0.821118 14.5004 0.994626 14.7236C1.0565 14.8032 1.3291 15.1695 1.60041 15.5377C2.64171 16.9507 3.21109 17.6158 4.3098 18.7026C5.79678 20.1736 7.11399 21.1854 8.88721 22.2189C9.89957 22.809 10.5337 23.1129 11.664 23.5498C13.594 24.2959 15.0092 24.6516 16.375 24.7339C17.2144 24.7846 21.0052 24.7887 21.9469 24.7401C22.2929 24.7222 22.5822 24.712 22.5897 24.7173C22.5971 24.7226 22.552 24.8019 22.4893 24.8934C22.187 25.3348 20.9978 27.4813 20.8659 27.8235C20.8201 27.9423 20.627 28.3798 20.4367 28.7956C20.0981 29.5355 19.387 31.3568 19.387 31.4841C19.387 31.5194 19.3274 31.7402 19.2546 31.9747C18.0527 35.8437 17.6619 39.7205 18.0671 43.7585C18.2476 45.5573 18.6918 47.7832 19.1688 49.2788C19.2383 49.4966 19.3349 49.8302 19.3835 50.0202C19.4695 50.3564 19.9355 51.6378 20.1137 52.0282C20.1625 52.1351 20.2551 52.3489 20.3194 52.5033C20.69 53.3929 21.2871 54.6154 21.7008 55.3318C22.3769 56.5025 22.5435 56.7824 22.7968 57.1725C22.9451 57.4011 23.2149 57.7835 23.3962 58.0225C23.5775 58.2614 23.7262 58.4727 23.7266 58.4922C23.7277 58.546 24.177 59.1308 24.6377 59.678C24.8648 59.9477 25.118 60.2559 25.2004 60.3628C25.2828 60.4696 25.4894 60.7028 25.6595 60.881C25.8297 61.0591 26.142 61.3895 26.3536 61.6151C26.7028 61.9875 26.9835 62.2588 27.9804 63.1879C28.1609 63.356 28.5494 63.6879 28.8438 63.9255C29.1383 64.163 29.5374 64.4883 29.7306 64.6484C29.924 64.8085 30.1419 64.968 30.215 65.0029C30.288 65.0377 30.6102 65.2611 30.9309 65.4994C31.6889 66.0626 33.4894 67.1353 34.5511 67.6563C36.209 68.4699 37.8386 69.1262 39.0634 69.4734C39.3259 69.5478 39.585 69.6269 39.6393 69.6492C39.8606 69.7399 41.51 70.1417 42.3826 70.3174C44.0116 70.6454 44.8789 70.7406 46.9166 70.8152C48.0438 70.8564 48.5041 70.8532 49.7585 70.7954C51.7059 70.7058 52.6971 70.5778 54.5094 70.1817C55.5303 69.9586 56.4268 69.7121 57.9805 69.2272C59.2078 68.8442 61.8159 67.6556 63.0785 66.904C63.4245 66.698 63.7857 66.4898 63.8812 66.4414C64.1189 66.3207 65.4339 65.4377 65.7136 65.211C65.8386 65.1096 65.9589 65.0266 65.9809 65.0266C66.0328 65.0266 67.0026 64.2724 67.4524 63.8823C67.6441 63.716 67.9032 63.5023 68.0281 63.4072C68.153 63.3122 68.4523 63.0344 68.6932 62.7899C68.9341 62.5454 69.2354 62.2647 69.3629 62.1662C69.4905 62.0677 69.8347 61.7139 70.128 61.38C70.4213 61.0462 70.724 60.7147 70.8007 60.6435C70.9753 60.4812 71.4372 59.9294 71.614 59.6718C71.6874 59.5649 71.8272 59.39 71.9249 59.2832C72.1741 59.0104 72.8765 58.038 73.36 57.2967C73.5845 56.9523 73.8765 56.5053 74.0087 56.3035C74.2702 55.9044 74.4922 55.488 75.3553 53.7793C75.6666 53.1629 75.9213 52.6246 75.9213 52.583C75.9213 52.5415 75.9913 52.3489 76.0769 52.1552C76.49 51.2201 77.0737 49.5401 77.2914 48.6599C77.9196 46.1194 78.1899 44.3888 78.3098 42.1391C78.4292 39.9005 78.1647 36.9028 77.6354 34.4955C77.5493 34.1036 77.4494 33.6469 77.4136 33.4807C77.2092 32.5327 76.8179 31.3141 76.2905 29.9827C76.0928 29.484 75.9164 29.0273 75.8983 28.9679C75.836 28.7628 75.4062 27.8643 75.0307 27.1542C74.8236 26.7623 74.6038 26.3445 74.5424 26.2257C74.3176 25.7909 73.9404 25.1728 73.4829 24.4896C73.2252 24.1048 73.0135 23.7744 73.0125 23.7555C73.0116 23.7366 72.9579 23.6507 72.8932 23.5647C72.8286 23.4787 72.6606 23.2552 72.52 23.0681C72.2812 22.7504 71.8283 22.1755 71.2868 21.5029C70.7899 20.8856 69.5528 19.5822 68.8221 18.906C68.2304 18.3585 67.5133 17.7243 67.4173 17.6635C67.3576 17.6258 67.2503 17.5415 67.1787 17.4761C66.5963 16.9445 63.8124 15.0214 63.265 14.7727C63.1266 14.7098 62.9158 14.5967 62.7965 14.5212C62.4183 14.2822 60.638 13.3887 60.364 13.3004C60.2193 13.2538 60.0147 13.1719 59.9094 13.1185C59.4146 12.8672 57.0899 12.0316 56.4836 11.8871C56.3046 11.8444 55.8653 11.7357 55.5074 11.6455C53.6712 11.1828 51.8951 10.9015 50.0622 10.7831C49.5885 10.7525 48.6664 10.7428 47.6108 10.7571C45.8654 10.781 45.3471 10.8182 43.8794 11.0255C43.1945 11.1222 43.083 11.1268 42.3175 11.0892C41.2357 11.0362 38.7252 10.9739 35.267 10.9144L32.4685 10.8662L31.9611 10.6325C31.6821 10.504 31.4276 10.3988 31.3956 10.3988C31.3094 10.3988 30.2332 9.78343 29.7434 9.45411C29.5094 9.29674 29.2216 9.10738 29.104 9.03328C28.7919 8.83675 28.2768 8.44537 27.7888 8.034C27.5536 7.8357 27.29 7.6285 27.2031 7.57361C27.1161 7.51868 26.8582 7.30116 26.6299 7.09016C26.4017 6.87917 25.9917 6.50917 25.7188 6.26798C24.8744 5.52154 23.2856 3.87964 22.4459 2.88567C21.8763 2.21144 21.002 1.06633 20.8296 0.768704C20.5363 0.262457 20.1773 -0.0898391 20.0668 0.020194ZM49.3029 15.7974C51.7098 15.923 53.9814 16.3332 55.8979 16.9883C57.5357 17.5481 58.1705 17.8093 59.2867 18.3829C61.124 19.327 60.9189 19.2092 62.0406 19.964C62.3583 20.1778 62.6807 20.3916 62.7572 20.4391C62.9393 20.5522 63.689 21.1358 64.351 21.6795C65.4544 22.5858 67.2365 24.4627 68.1549 25.6859C68.3065 25.8878 68.4954 26.1259 68.5748 26.2151C68.6541 26.3042 68.7189 26.3975 68.7189 26.4224C68.7189 26.4474 68.9506 26.8117 69.2336 27.232C69.8583 28.1596 69.9573 28.3314 70.5962 29.5983C71.1303 30.6573 71.4262 31.3151 71.599 31.8275C71.6572 32.0005 71.8317 32.5112 71.9867 32.9625C72.4573 34.3327 72.8876 36.0848 73.0102 37.1297C73.2808 39.4378 73.3328 41.4346 73.1659 43.1107C73.1304 43.467 73.0821 43.9722 73.0584 44.2335C72.9412 45.5287 72.4721 47.3386 71.6255 49.7611C71.2713 50.7745 70.2084 52.8903 69.4997 53.9921C68.7409 55.172 67.9805 56.2415 67.7641 56.433C67.6546 56.5299 67.2438 57.0371 67.2438 57.0753C67.2438 57.1364 65.3168 59.1007 65.031 59.3308C64.8759 59.4557 64.6115 59.6856 64.4436 59.8416C64.2756 59.9976 63.9632 60.257 63.7493 60.4182C63.5355 60.5792 63.2336 60.8067 63.0785 60.9236C62.611 61.276 61.3416 62.1157 61.021 62.2846C60.8558 62.3716 60.5337 62.5552 60.3051 62.6926C59.8576 62.9616 59.1205 63.338 58.6313 63.5475C56.7663 64.3459 55.3433 64.8475 54.3142 65.0692C52.3535 65.4915 51.6553 65.6096 50.3043 65.7468C49.4332 65.8354 46.9683 65.8479 46.1356 65.768C44.8724 65.6469 43.5943 65.4475 42.6077 65.2177C42.3616 65.1604 41.9711 65.0748 41.7399 65.0276C41.1642 64.9098 39.9321 64.498 38.8898 64.0751C38.4126 63.8814 37.8952 63.6726 37.7401 63.6112C37.3634 63.462 36.4615 62.9992 35.7582 62.5941C35.4436 62.413 35.1117 62.2234 35.0206 62.1729C34.7201 62.0062 33.9937 61.5233 33.5965 61.2262C33.3818 61.0655 33.0564 60.8298 32.8734 60.7024C31.6693 59.8639 29.1938 57.42 28.226 56.1144C27.6385 55.3217 26.5894 53.7987 26.5894 53.7385C26.5894 53.7254 26.4432 53.4614 26.2644 53.1518C25.7696 52.2947 25.3485 51.4812 25.1548 51.0082C24.0908 48.4112 23.8804 47.7312 23.4194 45.3995C22.9557 43.0541 22.8516 40.1938 23.1436 37.8207C23.2761 36.7434 23.6205 34.974 23.881 34.032C24.0212 33.5248 24.4534 32.2387 24.5742 31.9692C24.6062 31.898 24.7515 31.5482 24.8972 31.1919C25.3221 30.1533 25.5658 29.6494 26.0878 28.7304C26.3575 28.2554 26.6052 27.8145 26.6381 27.7507C26.7322 27.5682 27.4192 26.5559 27.7235 26.1514C27.8753 25.9496 28.112 25.6298 28.2494 25.4407C28.3869 25.2516 28.6574 24.9234 28.8507 24.7113C29.0439 24.4992 29.3051 24.1993 29.4311 24.0449C29.5571 23.8906 29.7648 23.6569 29.8928 23.5257C30.3991 23.0066 31.5009 21.9673 31.6547 21.8637C31.7443 21.8034 31.9272 21.6719 32.061 21.5716C32.1949 21.4712 32.4585 21.2738 32.6468 21.1328C33.0759 20.8114 33.8063 20.2373 33.8352 20.1987C33.8471 20.1827 34.1204 19.9993 34.4426 19.7912C34.7648 19.583 35.126 19.3491 35.2453 19.2713C35.3646 19.1935 35.716 18.9993 36.0263 18.8396C37.8599 17.8956 38.1619 17.7533 38.8465 17.5108C41.8833 16.435 42.5557 16.2686 45.1784 15.9439C45.3315 15.9249 47.8092 15.7352 48.1314 15.7536C48.2399 15.7536 48.2182 15.7536 48.2833 15.7536C48.4352 15.7536 48.2161 15.7407 49.3029 15.7974ZM30.4075 29.9152C30.0255 30.0312 29.6703 30.31 29.5146 30.6158C29.1416 31.3484 28.238 33.927 28.0642 34.7546C28.0119 35.004 27.9625 35.2187 27.9545 35.2318C27.9465 35.2449 27.8618 35.5947 27.7663 36.0091C26.8825 39.8435 26.7488 43.4547 27.3755 46.5654C27.5872 47.6165 28.001 49.0515 28.3343 49.8906C28.523 50.3656 29.1529 51.6209 29.3763 51.9674C29.4543 52.0883 29.5734 52.2924 29.641 52.4208C29.8381 52.7955 30.5637 53.7731 31.1926 54.5113C31.4779 54.8463 32.9074 56.2054 33.1109 56.3352C33.3054 56.4593 33.8004 56.8339 33.9436 56.9655C34.0795 57.0902 35.1188 57.811 35.2084 57.8426C35.2525 57.8582 35.3277 57.9051 35.3754 57.9467C35.5082 58.0627 37.1752 59.0773 37.3938 59.1752C37.4998 59.2227 37.8475 59.3939 38.1664 59.5557C38.4852 59.7175 38.9198 59.9259 39.1322 60.0189C39.3445 60.1119 39.6404 60.2448 39.7897 60.3142C39.9391 60.3836 40.237 60.4982 40.4518 60.5689C40.6666 60.6396 41.0863 60.7777 41.3846 60.8757C44.3561 61.8527 47.2886 62.1936 50.1273 61.8921C51.8976 61.7041 53.0911 61.4079 55.1169 60.6537C55.3552 60.565 55.5588 60.4047 55.7371 60.1652C55.9882 59.8278 56.0646 59.5689 56.0402 59.1378C56.0156 58.7044 55.9002 58.4434 55.5952 58.1322C55.4167 57.9499 55.3233 57.8932 55.0798 57.8191C54.5954 57.6716 54.3739 57.6938 53.5666 57.9705C51.8066 58.5737 50.6625 58.7987 48.8473 58.8987C46.9523 59.0032 44.7986 58.7174 42.773 58.0928C42.5702 58.0302 42.2773 57.9441 42.1222 57.9013C41.49 57.7271 40.4938 57.2916 38.9332 56.5072C38.8616 56.4712 38.7152 56.3978 38.6078 56.344C38.3478 56.2138 37.1081 55.4325 36.2242 54.8417C35.676 54.4753 34.1161 53.1862 33.9311 52.9467C33.8664 52.8629 33.6021 52.5589 33.3438 52.271C32.6824 51.5337 32.1457 50.7226 31.583 49.6099C31.1717 48.7966 31.0792 48.5655 30.8051 47.6666C30.4763 46.5885 30.3244 45.8769 30.1599 44.6438C30.048 43.8052 30.0488 41.1656 30.1612 40.1742C30.3205 38.7688 30.5243 37.6639 31.0211 35.5103C31.1142 35.1065 31.6105 33.6128 31.9034 32.8545C32.3545 31.6868 32.36 31.6689 32.36 31.3726C32.36 31.0144 32.2775 30.7523 32.0866 30.5034C31.7546 30.0707 31.3553 29.8722 30.8289 29.8785C30.6568 29.8805 30.4672 29.897 30.4075 29.9152ZM77.0084 60.7503C76.8785 60.7706 76.6132 60.8675 76.4187 60.9656C76.0238 61.1649 76.5207 60.6847 71.3584 65.8559C67.1841 70.0374 67.3733 69.822 67.2027 70.5861C66.8968 71.9562 67.4333 73.185 68.5888 73.761C69.1146 74.0231 69.5183 74.1118 70.0423 74.0806C70.4852 74.0541 70.7676 73.9796 71.2354 73.7656C71.5568 73.6187 71.6118 73.5659 75.6514 69.5269C77.9013 67.2774 79.8265 65.33 79.9296 65.1994C80.1698 64.8954 80.2445 64.748 80.3697 64.332C80.5635 63.6873 80.5526 63.1339 80.3331 62.4852C80.1403 61.9154 79.8134 61.4982 79.2832 61.1452C78.771 60.8042 78.563 60.7435 77.8521 60.7272C77.518 60.7196 77.1383 60.73 77.0084 60.7503ZM82.0824 69.675C81.7269 69.7427 81.1072 69.929 80.8458 70.0466C80.3366 70.2758 79.6449 70.7765 79.2389 71.2099C78.9365 71.5327 78.4517 72.3407 78.2911 72.7897C77.8267 74.088 77.9322 75.5276 78.575 76.6648C78.6959 76.8785 78.8364 77.1311 78.8874 77.2259C78.9384 77.3208 79.2838 77.6997 79.6548 78.068C80.0259 78.4363 80.9826 79.407 81.7808 80.2252C83.8356 82.3314 84.614 83.1258 85.3581 83.8761C85.7161 84.237 86.3145 84.8414 86.688 85.2192C87.5342 86.0752 90.6384 89.252 91.3672 90.0078C91.6654 90.317 92.1242 90.7841 92.3868 91.0457C92.9471 91.604 94.6575 93.3457 97.1782 95.9249C100.31 99.1293 100.484 99.2845 101.325 99.6324C101.966 99.8973 102.325 99.972 103.068 99.9945C104.019 100.023 104.416 99.9473 105.321 99.5631C105.964 99.2905 106.374 98.9665 106.972 98.2584C107.704 97.3924 108.001 96.5254 108 95.2555C108 94.7375 107.979 94.4864 107.906 94.1449C107.683 93.0865 107.283 92.4809 105.884 91.0813C105.548 90.745 104.853 90.0397 104.34 89.514C103.827 88.9883 103.094 88.2432 102.712 87.8583C102.329 87.4734 101.684 86.8184 101.279 86.4028C99.0402 84.1044 97.6244 82.6569 97.1813 82.2131C96.2928 81.3229 94.3015 79.293 91.8658 76.7943C91.0786 75.9868 90.3345 75.2289 90.2123 75.1101C90.0901 74.9914 89.1432 74.0298 88.108 72.9733C87.0729 71.9167 86.1258 70.962 86.0034 70.8516C85.4958 70.3938 84.6971 69.9618 84.0374 69.7881C83.6891 69.6964 83.5079 69.677 82.9067 69.6666C82.513 69.6599 82.142 69.6636 82.0824 69.675Z" fill="url(#paint0_linear_1847_5022)"/>
<defs>
<linearGradient id="paint0_linear_1847_5022" x1="0" y1="0" x2="110.995" y2="2.32915" gradientUnits="userSpaceOnUse">
<stop stop-color="#B78AF7"/>
<stop offset="1" stop-color="#612AC3"/>
</linearGradient>
</defs>
</svg>
